<svg height="512" version="1.1" width="512" xmlns="http://www.w3.org/2000/svg" style="overflow: hidden; position: relative; left: -0.5px;"><rect x="0" y="0" width="512" height="512" r="0" rx="0" ry="0" fill="#ececec" stroke="none" opacity="0" stroke-width="0" style="-webkit-tap-highlight-color: rgba(0, 0, 0, 0); opacity: 0;"></rect>
<g id="surface1">
<path style=" stroke:none;fill-rule:nonzero;fill:rgb(0%,0%,0%);fill-opacity:1;" d="M 200.800781 10 C 86 34.800781 2 148.800781 9.199219 268 C 13.199219 328.800781 35.199219 378.800781 77.601562 423.601562 C 134 482.800781 210 510.398438 286.800781 499.601562 C 457.601562 476 553.199219 295.601562 477.199219 140.398438 C 456.398438 98 410 51.601562 367.601562 30.800781 C 315.601562 5.199219 256.800781 -2 200.800781 10 Z M 248 39.601562 L 248 58.800781 L 225.601562 61.199219 C 199.601562 64 157.601562 82.800781 134 102 L 117.601562 115.199219 L 104.800781 105.199219 C 97.601562 100 92 92.800781 92 90 C 92 82.800781 127.199219 56.398438 155.199219 42.398438 C 178 30.800781 214.398438 20.800781 235.199219 20.398438 C 248 20 248 20 248 39.601562 Z M 331.199219 32 C 356 40.800781 386.800781 58.398438 408 76.398438 L 421.601562 88 L 408.398438 101.601562 L 394.800781 115.601562 L 374.398438 100 C 346.398438 78.800781 312.398438 64 286 61.199219 L 264 58.800781 L 264 18.800781 L 286.398438 21.601562 C 298.398438 22.800781 318.800781 27.601562 331.199219 32 Z M 292.398438 73.601562 C 378.398438 92 436 162.800781 436 250.398438 C 436 325.199219 399.199219 384.800781 334 416 C 214 473.199219 76 385.601562 76 252.398438 C 76 164 132.800781 92.398438 217.601562 74 C 249.601562 67.199219 260.398438 66.800781 292.398438 73.601562 Z M 94.800781 112.800781 C 106.800781 124 106.398438 128 92 150.398438 C 85.601562 160.800781 77.199219 178 74 188.398438 L 67.601562 208 L 50.800781 199.601562 C 41.601562 194.800781 33.601562 190.398438 32.800781 190 C 32 189.199219 36 178 41.199219 164.800781 C 52.398438 137.199219 74 104 80.800781 104 C 83.601562 104 89.601562 108 94.800781 112.800781 Z M 443.601562 115.601562 C 455.199219 131.601562 476 176.398438 476 184.800781 C 476 188.800781 469.199219 195.199219 460 200 C 444.800781 207.601562 443.601562 208 441.601562 201.199219 C 435.199219 181.601562 429.601562 170 417.199219 149.199219 L 403.601562 126.800781 L 414.800781 115.199219 C 428.398438 101.199219 433.199219 101.199219 443.601562 115.601562 Z M 50.398438 215.601562 C 62.800781 223.199219 63.199219 224 64.800781 260.800781 C 66 281.199219 66.398438 298.800781 65.601562 299.601562 C 63.601562 301.601562 38.800781 296.398438 32.398438 292.398438 C 21.199219 285.199219 22 208 33.199219 208 C 36 208 43.601562 211.601562 50.398438 215.601562 Z M 485.601562 230.398438 C 486.800781 242.800781 487.199219 261.601562 485.601562 272 C 483.199219 289.199219 481.601562 292 470.800781 295.601562 C 464.398438 298 455.199219 300 450.800781 300 C 444 300 443.199219 298 445.601562 284.800781 C 446.800781 276.800781 448 259.199219 448 245.601562 C 448 222.398438 448.398438 221.199219 461.199219 214.800781 C 480.800781 205.199219 482.800781 206.398438 485.601562 230.398438 Z M 63.601562 316 C 70 317.601562 77.199219 325.601562 85.199219 340.398438 C 91.601562 352 99.601562 365.199219 103.199219 369.199219 C 109.199219 376 108.398438 376.398438 84 375.199219 L 58 374 L 47.199219 352 C 41.601562 340 35.199219 324.800781 33.601562 318.800781 C 30.800781 306.398438 29.199219 306.800781 63.601562 316 Z M 478 316.800781 C 476.398438 322 470 337.199219 464 350.800781 L 452.398438 376 L 404.398438 376 L 416.800781 354.800781 C 423.601562 343.601562 431.601562 330.398438 434.398438 325.601562 C 438.398438 318.800781 456.398438 311.601562 477.199219 308.398438 C 479.199219 308.398438 479.199219 312 478 316.800781 Z M 134.398438 400.398438 C 138.398438 405.199219 146.800781 411.199219 152.800781 414.398438 C 159.199219 417.601562 164 421.601562 164 423.199219 C 164 426.398438 132.398438 444 126.800781 444 C 122.398438 444 76 399.601562 76 395.199219 C 76 393.601562 87.601562 392 101.199219 392 C 122 392 128 393.601562 134.398438 400.398438 Z M 436 395.601562 C 436 400.398438 388.800781 444 383.601562 444 C 377.601562 444 348 426.398438 349.199219 423.601562 C 349.601562 422 358 414.398438 368 406.800781 C 384 394 388.800781 392.398438 411.199219 392.398438 C 424.800781 392 436 393.601562 436 395.601562 Z M 203.601562 438 C 206.800781 441.199219 192.398438 468 186.398438 470.398438 C 179.601562 473.199219 141.601562 457.199219 145.199219 453.199219 C 156.800781 442 179.199219 432 189.601562 434 C 196 435.199219 202.398438 436.800781 203.601562 438 Z M 350 443.199219 L 368 454.398438 L 350 463.199219 C 340 468 329.601562 472 326.800781 472 C 324.398438 472 318 464.800781 312.800781 456 L 303.601562 440 L 312.800781 436 C 327.199219 430.398438 330.800781 431.199219 350 443.199219 Z M 248 464.398438 L 248 485.199219 L 227.199219 482.398438 C 215.601562 480.800781 205.601562 478.800781 204.800781 478 C 204 477.199219 207.199219 469.601562 212 460.398438 C 219.199219 446 222 444 234 444 L 248 444 Z M 299.601562 460.398438 C 304.800781 469.199219 308 477.199219 307.601562 478 C 306.800781 478.398438 296.398438 480.398438 285.199219 482 L 264 484.800781 L 264 444 L 277.199219 444 C 288.800781 444 292 446.398438 299.601562 460.398438 Z M 299.601562 460.398438 "/>
<path style=" stroke:none;fill-rule:nonzero;fill:rgb(0%,0%,0%);fill-opacity:1;" d="M 238 80 C 234.398438 85.601562 239.601562 108 244.398438 108 C 246.398438 108 248 106 248 103.199219 C 248 99.601562 249.199219 99.601562 252.800781 103.199219 C 260.800781 111.199219 263.199219 108.800781 262.800781 92.800781 C 262 80 260.800781 78 251.199219 76.800781 C 245.601562 76 239.601562 77.601562 238 80 Z M 238 80 "/>
<path style=" stroke:none;fill-rule:nonzero;fill:rgb(0%,0%,0%);fill-opacity:1;" d="M 203.199219 98.800781 C 202 107.199219 201.601562 114.398438 201.601562 114.800781 C 203.199219 116.800781 232 107.199219 232 104.800781 C 231.601562 103.199219 228.398438 98 224.398438 92.800781 C 212.800781 79.199219 205.199219 81.601562 203.199219 98.800781 Z M 203.199219 98.800781 "/>
<path style=" stroke:none;fill-rule:nonzero;fill:rgb(0%,0%,0%);fill-opacity:1;" d="M 292.800781 88.800781 C 284.800781 96.800781 287.199219 108 298.398438 112.800781 C 306.800781 116.800781 309.199219 116.398438 312.398438 111.601562 C 314.398438 108.398438 315.199219 104 314 101.199219 C 313.199219 98.398438 314.398438 95.199219 316.800781 93.601562 C 319.601562 92 319.199219 90 315.601562 87.601562 C 307.601562 82.800781 298.398438 83.199219 292.800781 88.800781 Z M 292.800781 88.800781 "/>
<path style=" stroke:none;fill-rule:nonzero;fill:rgb(0%,0%,0%);fill-opacity:1;" d="M 174.398438 97.199219 C 167.601562 102.398438 167.601562 103.199219 177.601562 114 C 189.601562 126.800781 195.601562 124.800781 188.800781 110 C 186 104 185.601562 100 188 100 C 190.398438 100 192 98 192 96 C 192 90.398438 182.800781 91.199219 174.398438 97.199219 Z M 174.398438 97.199219 "/>
<path style=" stroke:none;fill-rule:nonzero;fill:rgb(0%,0%,0%);fill-opacity:1;" d="M 326.398438 109.199219 L 314.800781 118.398438 L 328.398438 127.199219 L 342 135.601562 L 345.199219 123.199219 C 348.398438 110.800781 346.800781 100 341.199219 100 C 339.601562 100 332.800781 104 326.398438 109.199219 Z M 326.398438 109.199219 "/>
<path style=" stroke:none;fill-rule:nonzero;fill:rgb(0%,0%,0%);fill-opacity:1;" d="M 146 116 C 136.800781 126.398438 140.800781 137.199219 152.800781 134.398438 C 158 133.199219 159.601562 133.199219 157.199219 134.398438 C 154.398438 135.601562 152 139.199219 152 142.398438 C 152 147.199219 150.398438 147.199219 143.199219 143.199219 C 138 140.398438 132.800781 136.800781 131.601562 134.800781 C 130.398438 133.199219 126 135.601562 121.601562 140.398438 C 114 148.800781 114 148.800781 125.601562 158 L 136.800781 166.800781 L 154.800781 149.199219 C 173.601562 130.398438 175.601562 117.199219 159.199219 121.199219 C 152.800781 122.800781 152 122.398438 155.601562 118.800781 C 158 116.398438 160 112.800781 160 111.199219 C 160 105.601562 153.601562 107.601562 146 116 Z M 146 116 "/>
<path style=" stroke:none;fill-rule:nonzero;fill:rgb(0%,0%,0%);fill-opacity:1;" d="M 228.800781 116 C 186.800781 124.800781 143.199219 162 128.398438 202.398438 C 117.199219 231.601562 117.199219 272.398438 128.398438 301.601562 C 143.199219 341.601562 186.398438 379.199219 226 386 C 246.800781 390 249.199219 391.601562 244 398 C 236 408 240.800781 422 252.800781 423.199219 C 262.800781 424.398438 263.601562 423.601562 263.199219 410.800781 C 262.398438 392.398438 265.199219 389.601562 284.398438 386.398438 C 319.199219 380.800781 358 351.601562 377.199219 316.800781 C 396.800781 280.398438 398 227.199219 379.601562 191.199219 C 351.601562 136.800781 286.398438 104 228.800781 116 Z M 260 128 C 260 130 258.398438 132 256 132 C 254 132 252 130 252 128 C 252 125.601562 254 124 256 124 C 258.398438 124 260 125.601562 260 128 Z M 316 140 C 336.398438 150.800781 362.398438 179.199219 372.398438 202 C 384.398438 229.199219 384.800781 274.398438 373.199219 300.800781 C 361.601562 326 335.601562 353.601562 310.800781 366 C 287.199219 377.601562 272 379.601562 280 370 C 282.800781 366.800781 288 364 291.601562 364 C 302.398438 364 333.199219 342.800781 347.199219 325.601562 C 363.601562 305.601562 372 280.398438 372 250.398438 C 371.601562 221.199219 365.199219 201.199219 349.601562 181.601562 C 343.199219 173.601562 336 163.199219 333.199219 158.398438 C 330.398438 154 325.199219 149.601562 321.199219 149.601562 C 311.199219 148.800781 277.601562 133.601562 274.398438 128.800781 C 271.199219 123.199219 297.601562 130.398438 316 140 Z M 236 130 C 236 133.199219 199.601562 148.800781 190.800781 149.601562 C 186.800781 149.601562 181.601562 153.601562 178.800781 158.398438 C 176 163.199219 168 174.398438 160.800781 184 C 154 193.601562 146 208.398438 143.601562 217.601562 C 137.601562 240 140.800781 282.800781 150 302 C 161.199219 325.199219 192 354.398438 211.601562 360.398438 C 230.398438 366 242 376 229.199219 376 C 214.398438 376 180 355.199219 162.398438 335.601562 C 132 302 122.800781 254 137.601562 209.199219 C 146.800781 182 175.601562 149.601562 202 137.601562 C 220.800781 128.800781 236 125.199219 236 130 Z M 232.398438 149.199219 C 228 156.398438 221.601562 172.800781 218.398438 185.601562 C 211.199219 212.398438 214.800781 240.800781 228 263.199219 C 232.800781 270.800781 236 277.199219 235.199219 277.601562 C 234.398438 277.601562 230 280 225.601562 282.800781 C 215.601562 288.398438 207.601562 282 200.398438 262.800781 C 188.800781 232 197.601562 191.199219 224.398438 154 C 239.601562 132.800781 244.398438 130.398438 232.398438 149.199219 Z M 304 181.601562 C 311.199219 196 316 211.601562 316 220.800781 C 316 238 305.199219 262 292.800781 273.199219 C 280.398438 284.398438 275.199219 278 284 262.800781 C 297.601562 239.601562 301.199219 214 294 186.800781 C 290.800781 173.601562 284 156.398438 279.601562 148.398438 L 271.199219 134 L 281.601562 146 C 287.199219 152.398438 297.199219 168.800781 304 181.601562 Z M 197.601562 271.199219 C 201.199219 278 207.199219 286.800781 211.601562 290.800781 C 215.601562 294.800781 220 301.199219 221.199219 305.199219 C 225.601562 317.199219 210.800781 306.398438 198.398438 288.800781 C 178.800781 260.398438 172 225.199219 178.800781 186 C 181.199219 172.398438 182.398438 176.398438 186.398438 214.398438 C 188.800781 238.800781 194 264.398438 197.601562 271.199219 Z M 335.601562 212.398438 C 336 224.398438 333.199219 243.601562 330 255.199219 C 324 274.800781 302.398438 308 293.601562 310.800781 C 286 313.199219 292.800781 286.800781 304 270 C 318 250 328 216.800781 328.398438 190.398438 C 328.800781 174 329.601562 172 332 180 C 333.601562 185.601562 335.199219 200 335.601562 212.398438 Z M 182.800781 276.800781 C 195.199219 294.398438 211.199219 312.398438 218.800781 316.800781 C 236.800781 327.601562 235.601562 330 217.199219 320.398438 C 208.800781 316 195.199219 305.601562 187.199219 297.199219 C 172.398438 282 152 243.601562 152.398438 232 C 152.398438 228.800781 154.398438 230.398438 156.398438 235.601562 C 158.398438 240.800781 170.398438 259.199219 182.800781 276.800781 Z M 354 251.601562 C 346 276.398438 317.199219 309.601562 294.398438 320.398438 C 285.601562 324.398438 281.199219 326 285.601562 323.199219 C 305.199219 310 316.398438 298 335.199219 270 C 346.800781 253.199219 356 236.398438 356 232.800781 C 356 229.601562 357.199219 227.601562 358.398438 229.199219 C 359.601562 230.398438 358 240.398438 354 251.601562 Z M 262 244 C 263.601562 250.398438 263.601562 261.199219 262 267.199219 C 260 277.199219 261.199219 278.800781 272.800781 282 C 283.601562 285.199219 286 288 285.199219 296.800781 C 284.800781 302.398438 280 314.800781 274 324 C 263.601562 340.800781 262.800781 353.199219 272.800781 350.398438 C 275.601562 350 276.800781 350 275.199219 350.800781 C 273.199219 352 272 356.398438 272 360.800781 C 272 368.800781 260 392 256 392 C 253.199219 392 241.199219 368 238.800781 356.800781 C 237.601562 352 238.398438 349.199219 240.398438 350.398438 C 249.601562 356 247.199219 338.800781 236 318.398438 C 221.601562 292.800781 222.398438 284.800781 240.398438 281.199219 C 251.601562 279.199219 252.398438 277.601562 250.398438 267.601562 C 248 254.398438 251.601562 232 256 232 C 258 232 260.398438 237.199219 262 244 Z M 220.398438 328.800781 C 231.199219 334 240 339.199219 240 341.199219 C 240 347.199219 193.601562 320.398438 181.601562 307.199219 C 159.601562 282.800781 158 277.601562 179.601562 298.800781 C 191.199219 310.398438 209.601562 324 220.398438 328.800781 Z M 348.398438 287.601562 C 341.199219 300.800781 305.601562 330.398438 288.398438 336.800781 C 264.800781 346 268 339.601562 292.800781 328.398438 C 304.398438 323.199219 322 310 332 299.601562 C 352 278 354 276.398438 348.398438 287.601562 Z M 188.398438 322.800781 C 193.601562 329.199219 193.199219 329.601562 187.199219 324.398438 C 180.398438 319.199219 178.398438 316 181.601562 316 C 182.398438 316 185.601562 319.199219 188.398438 322.800781 Z M 328 321.601562 C 328 322.398438 324.800781 325.601562 321.199219 328.398438 C 314.800781 333.601562 314.398438 333.199219 319.601562 326.800781 C 324.800781 320.398438 328 318.398438 328 321.601562 Z M 328 321.601562 "/>
<path style=" stroke:none;fill-rule:nonzero;fill:rgb(0%,0%,0%);fill-opacity:1;" d="M 354.800781 126.398438 C 348.800781 134.398438 348.398438 137.601562 352 142 C 358.800781 150.398438 364.800781 149.601562 362 140.398438 C 360.800781 136.398438 362.398438 130.800781 366 128 C 369.199219 125.199219 370.800781 121.601562 369.601562 119.601562 C 366.398438 114 362.398438 115.601562 354.800781 126.398438 Z M 354.800781 126.398438 "/>
<path style=" stroke:none;fill-rule:nonzero;fill:rgb(0%,0%,0%);fill-opacity:1;" d="M 380 146.800781 C 376.800781 147.601562 371.601562 149.199219 369.199219 150 C 365.601562 151.199219 366.398438 155.601562 372.398438 166 L 380.800781 180.398438 L 390 167.199219 C 402.398438 148.800781 398.398438 140.398438 380 146.800781 Z M 384 160 C 384 162 383.199219 164 382.398438 164 C 381.199219 164 379.199219 162 378 160 C 376.800781 157.601562 377.601562 156 379.601562 156 C 382 156 384 157.601562 384 160 Z M 384 160 "/>
<path style=" stroke:none;fill-rule:nonzero;fill:rgb(0%,0%,0%);fill-opacity:1;" d="M 100 171.199219 C 100 172.800781 105.601562 177.601562 112.398438 181.601562 C 122.800781 187.601562 125.601562 188 128.398438 183.601562 C 134 174.800781 132.800781 166.398438 126.800781 171.199219 C 123.601562 174 119.601562 174 116 172 C 108.800781 167.199219 100 166.800781 100 171.199219 Z M 100 171.199219 "/>
<path style=" stroke:none;fill-rule:nonzero;fill:rgb(0%,0%,0%);fill-opacity:1;" d="M 392 178 C 386.398438 184.800781 389.601562 204 396.398438 204 C 399.199219 204 400 200 398.398438 194 C 395.601562 182.398438 402.398438 180.398438 410.398438 190.800781 C 418 201.601562 422 193.601562 414.398438 182 C 406.800781 170.800781 399.199219 169.199219 392 178 Z M 392 178 "/>
<path style=" stroke:none;fill-rule:nonzero;fill:rgb(0%,0%,0%);fill-opacity:1;" d="M 90.398438 192.800781 C 89.199219 198 88 202.800781 88 204 C 88 205.199219 95.199219 206.398438 104 206.398438 C 120.398438 206.800781 126 200.800781 112.398438 197.199219 C 108 196 103.601562 192.800781 102.398438 189.601562 C 99.199219 181.199219 93.199219 182.800781 90.398438 192.800781 Z M 90.398438 192.800781 "/>
<path style=" stroke:none;fill-rule:nonzero;fill:rgb(0%,0%,0%);fill-opacity:1;" d="M 414.398438 210 C 413.199219 213.199219 408.398438 216 404 216 C 390 216 395.199219 223.199219 411.199219 224.800781 C 429.199219 227.199219 429.601562 226.800781 426.398438 214 C 423.601562 202.800781 418 200.800781 414.398438 210 Z M 414.398438 210 "/>
<path style=" stroke:none;fill-rule:nonzero;fill:rgb(0%,0%,0%);fill-opacity:1;" d="M 83.199219 228.398438 C 80.398438 244.398438 82 246.800781 89.601562 240.398438 C 92.800781 237.601562 99.199219 236.398438 104 238 C 109.601562 240 112 238.800781 112 234.398438 C 112 230.398438 108.398438 228 103.601562 228 C 98.800781 228 92.800781 224.800781 90 221.199219 C 85.601562 215.601562 84.800781 216.398438 83.199219 228.398438 Z M 83.199219 228.398438 "/>
<path style=" stroke:none;fill-rule:nonzero;fill:rgb(0%,0%,0%);fill-opacity:1;" d="M 400 244 C 400 246 406.398438 248 414 248 C 421.601562 248 428 246 428 244 C 428 241.601562 421.601562 240 414 240 C 406.398438 240 400 241.601562 400 244 Z M 400 244 "/>
<path style=" stroke:none;fill-rule:nonzero;fill:rgb(0%,0%,0%);fill-opacity:1;" d="M 91.199219 258.398438 C 80.398438 264 79.199219 276 89.601562 276 C 92 276 98 277.199219 103.199219 278.398438 C 111.199219 280.800781 112 279.601562 112 266.398438 C 112 250.398438 108 248.800781 91.199219 258.398438 Z M 91.199219 258.398438 "/>
<path style=" stroke:none;fill-rule:nonzero;fill:rgb(0%,0%,0%);fill-opacity:1;" d="M 402 261.601562 C 400.800781 265.199219 399.199219 270.800781 398 274 C 397.199219 277.601562 398.800781 280 402 280 C 405.199219 280 408 276.398438 408 272 C 408 267.601562 410.800781 264 414 264 C 417.199219 264 420 267.601562 420 271.601562 C 420 276 422 280.800781 424.398438 282 C 427.199219 284 428 280 427.199219 271.601562 C 426.398438 260 424.398438 257.601562 414.800781 256.800781 C 407.601562 256 403.199219 257.601562 402 261.601562 Z M 402 261.601562 "/>
<path style=" stroke:none;fill-rule:nonzero;fill:rgb(0%,0%,0%);fill-opacity:1;" d="M 392.800781 297.199219 C 390 304.398438 388 312 388 313.601562 C 388 316.800781 414.800781 313.199219 421.199219 309.199219 C 424.398438 307.199219 404.800781 284 400 284 C 398.800781 284 395.601562 290 392.800781 297.199219 Z M 392.800781 297.199219 "/>
<path style=" stroke:none;fill-rule:nonzero;fill:rgb(0%,0%,0%);fill-opacity:1;" d="M 90 292 C 88.800781 294 88.800781 300.398438 90.398438 306.398438 C 92.800781 315.601562 94.398438 316.398438 105.199219 314.398438 C 120.800781 311.199219 121.601562 310.398438 118.398438 298 C 116.398438 290 113.199219 288 104 288 C 97.601562 288 91.601562 289.601562 90 292 Z M 90 292 "/>
<path style=" stroke:none;fill-rule:nonzero;fill:rgb(0%,0%,0%);fill-opacity:1;" d="M 110.800781 322.800781 C 105.601562 330.800781 159.601562 392 172 392 C 178.800781 392 176.800781 389.199219 150.800781 363.199219 C 136.800781 349.199219 122.800781 333.601562 119.601562 328.398438 C 116 322.398438 112.398438 320.398438 110.800781 322.800781 Z M 110.800781 322.800781 "/>
<path style=" stroke:none;fill-rule:nonzero;fill:rgb(0%,0%,0%);fill-opacity:1;" d="M 369.199219 355.601562 C 353.199219 372.398438 340.398438 387.601562 341.199219 389.199219 C 342.800781 394.800781 377.601562 365.601562 389.601562 348.800781 C 408.800781 320.800781 399.199219 324 369.199219 355.601562 Z M 369.199219 355.601562 "/>
<path style=" stroke:none;fill-rule:nonzero;fill:rgb(0%,0%,0%);fill-opacity:1;" d="M 184.398438 394.800781 C 180.398438 403.199219 180.800781 406 184.800781 408.398438 C 192.800781 413.601562 203.199219 412.800781 206.800781 406.398438 C 209.601562 401.601562 210.800781 401.601562 215.199219 406.398438 C 219.601562 411.199219 219.199219 412 214 412 C 210.800781 412 208 414 208 416.398438 C 208 418.800781 213.601562 420 221.199219 419.199219 C 232 418 234 416.398438 234 406.800781 C 234.398438 400 232 395.601562 228 395.199219 C 216 394 214 393.601562 205.199219 388.800781 C 192.800781 382 190 382.800781 184.398438 394.800781 Z M 184.398438 394.800781 "/>
<path style=" stroke:none;fill-rule:nonzero;fill:rgb(0%,0%,0%);fill-opacity:1;" d="M 301.199219 389.199219 C 288.398438 393.601562 283.199219 400 292.398438 400 C 295.199219 400 296 404 294.398438 410.398438 C 292.398438 418 293.199219 420.398438 296.800781 419.199219 C 299.601562 418 303.199219 411.199219 304.398438 403.601562 C 306 396 307.199219 391.601562 307.601562 394 C 308 396 310.800781 401.199219 313.601562 405.199219 C 319.199219 412.398438 332 410.800781 332 402.398438 C 332 398.398438 317.601562 383.199219 314.800781 384.398438 C 314.398438 384.800781 308 387.199219 301.199219 389.199219 Z M 301.199219 389.199219 "/>
</g>
</svg>